<svg xmlns="http://www.w3.org/2000/svg" width="167.895" height="97.641"><g fill="#133156"><path d="M129.481 71.846a12.9 12.9 0 1013.154 12.9 12.888 12.888 0 00-13.154-12.9zm0 23.425a10.529 10.529 0 1110.4-10.528 10.353 10.353 0 01-10.4 10.528zM69.643 38.044L54.466 3.026h10.43l19.146 44.5 2.143-4.626L67.371 0H49.387l20.2 47.4 3.532-9.547-1.8-4.241zM95.392 0l-5.97 12.105 1.706 4.083 7.026-13.162h10.747L93.732 37.538 78.344 0h-4l19.418 47.46 20.55-47.462z"/><path d="M89.513 0h-4.777l2.355 5.909zm-1.019 63.847v-.74h-2.8v4.724h2.9v-.74h-2.113v-1.283h1.547v-.732h-1.547v-1.229zm-4.287 3.984v-4.724h-.792v1.97H81.34v-1.97h-.792v4.724h.792v-2.023h2.075v2.023zm-35.583-2.679h20.022v.641H48.624zm28.595 2.679h.792v-3.992h1.547v-.732h-3.886v.732h1.547zm17.916-2.679h19.954v.641H95.135zM19.41 90.456l-.958 2.973-.989-2.973-2-5.743 4.309-12.037.038-.106h-2.694l-2.89 8.513-2.9-8.513H8.634l4.355 12.143-2.007 5.743-.989 2.973-.951-2.973-6.158-17.833-.023-.053H0l8.671 24.391.023.053h2.423l3.109-8.815 3.109 8.815h2.415l8.66-24.338.038-.106h-2.86zM35.697 72.57h2.672v24.354h-2.672zm30.028 15.645L50.103 72.593l-.03-.023h-1.645v24.354H51.1v-19.69l14.626 14.618v5.071h2.672V72.57h-2.672zm20.309-3.532l-3.532-2.34c-1.751-1.17-3.328-2.377-3.328-4.279 0-2.234 1.774-3.8 4.309-3.8A11.535 11.535 0 0188.977 76l.121.068v-2.74l-.045-.023a12.082 12.082 0 00-5.57-1.411c-4.211 0-6.936 2.506-6.936 6.385 0 3.064 2.181 4.875 4.083 6.113l3.706 2.43c2.324 1.532 3.456 2.989 3.456 4.445 0 2.347-1.985 3.924-4.943 3.924-2.377 0-5.079-1.411-6.475-2.249l-.121-.075v2.958l.045.023a14.055 14.055 0 006.558 1.758c4.581 0 7.66-2.581 7.66-6.422-.015-3.527-2.92-5.459-4.482-6.501zm9.162-9.736h8.52v21.976h2.672V74.947h8.52V72.57H95.196zm70.027 13.268l-15.622-15.622-.023-.023h-1.645v24.354h2.672v-19.69l14.618 14.618v5.071h2.672V72.57h-2.672z"/><path d="M48.624 65.152h20.022v.641H48.624zm46.511 0h19.954v.641H95.135zm-17.916 2.679h.792v-3.992h1.547v-.732h-3.886v.732h1.547zm6.988 0v-4.724h-.792v1.97H81.34v-1.97h-.792v4.724h.792v-2.023h2.075v2.023zm4.287-3.984v-.74h-2.8v4.724h2.9v-.74h-2.113v-1.283h1.547v-.732h-1.547v-1.229z"/></g></svg>