<?xml version="1.0" encoding="UTF-8"?>
<svg xmlns="http://www.w3.org/2000/svg" width="167.895" height="97.641" viewBox="0 0 167.895 97.641">
  <g transform="translate(12542.859 -1848.639)">
    <g transform="translate(-12575.649 1815.699)">
      <path d="M200.084,128.14a12.9,12.9,0,1,0,13.154,12.9A12.888,12.888,0,0,0,200.084,128.14Zm0,23.425a10.529,10.529,0,1,1,10.4-10.528A10.353,10.353,0,0,1,200.084,151.565Z" transform="translate(-37.813 -23.354)" fill="#133156"></path>
      <path d="M118.486,70.984,103.309,35.966h10.43l19.146,44.5,2.143-4.626-18.814-42.9H98.23l20.2,47.4,3.532-9.547-1.8-4.241Z" transform="translate(-16.053)" fill="#133156"></path>
      <path d="M152.348,32.94l-5.97,12.105,1.706,4.083,7.026-13.162h10.747L150.688,70.478,135.3,32.94h-4L150.718,80.4l20.55-47.462Z" transform="translate(-24.166)" fill="#133156"></path>
      <path d="M149.847,32.94H145.07l2.355,5.909Z" transform="translate(-27.544)" fill="#133156"></path>
      <path d="M149.14,117.3v-.74h-2.8v4.724h2.9v-.74h-2.113v-1.283h1.547v-.732h-1.547V117.3Z" transform="translate(-27.856 -20.513)" fill="#133156"></path>
      <path d="M143.18,121.284V116.56h-.792v1.97h-2.075v-1.97h-.792v4.724h.792v-2.023h2.075v2.023Z" transform="translate(-26.183 -20.513)" fill="#133156"></path>
      <rect width="20.022" height="0.641" transform="translate(81.414 98.092)" fill="#133156"></rect>
      <path d="M134.607,121.284h.792v-3.992h1.547v-.732H133.06v.732h1.547Z" transform="translate(-24.598 -20.513)" fill="#133156"></path>
      <rect width="19.954" height="0.641" transform="translate(127.925 98.092)" fill="#133156"></rect>
      <path d="M52.2,146.986l-.958,2.973-.989-2.973-2-5.743,4.309-12.037.038-.106H49.906l-2.89,8.513-2.9-8.513H41.424l4.355,12.143-2.007,5.743-.989,2.973-.951-2.973-6.158-17.833-.023-.053H32.79l8.671,24.391.023.053h2.423l3.109-8.815,3.109,8.815H52.54L61.2,129.206l.038-.106h-2.86Z" transform="translate(0 -23.59)" fill="#133156"></path>
      <rect width="2.672" height="24.354" transform="translate(68.487 105.51)" fill="#133156"></rect>
      <path d="M114.257,144.745,98.635,129.123l-.03-.023H96.96v24.354h2.672v-19.69l14.626,14.618v5.071h2.672V129.1h-2.672Z" transform="translate(-15.742 -23.59)" fill="#133156"></path>
      <path d="M143.611,140.994l-3.532-2.34c-1.751-1.17-3.328-2.377-3.328-4.279,0-2.234,1.774-3.8,4.309-3.8a11.535,11.535,0,0,1,5.494,1.736l.121.068v-2.74l-.045-.023a12.082,12.082,0,0,0-5.57-1.411c-4.211,0-6.936,2.506-6.936,6.385,0,3.064,2.181,4.875,4.083,6.113l3.706,2.43c2.324,1.532,3.456,2.989,3.456,4.445,0,2.347-1.985,3.924-4.943,3.924-2.377,0-5.079-1.411-6.475-2.249l-.121-.075v2.958l.045.023a14.055,14.055,0,0,0,6.558,1.758c4.581,0,7.66-2.581,7.66-6.422C148.078,143.968,145.173,142.036,143.611,140.994Z" transform="translate(-24.787 -23.371)" fill="#133156"></path>
      <path d="M158.93,131.477h8.52v21.976h2.672V131.477h8.52V129.1H158.93Z" transform="translate(-30.944 -23.59)" fill="#133156"></path>
      <path d="M246.1,144.745l-15.622-15.622-.023-.023H228.81v24.354h2.672v-19.69L246.1,148.382v5.071h2.672V129.1H246.1Z" transform="translate(-48.087 -23.59)" fill="#133156"></path>
      <rect width="20.022" height="0.641" transform="translate(81.414 98.092)" fill="#133156"></rect>
      <rect width="19.954" height="0.641" transform="translate(127.925 98.092)" fill="#133156"></rect>
      <path d="M134.607,121.284h.792v-3.992h1.547v-.732H133.06v.732h1.547Z" transform="translate(-24.598 -20.513)" fill="#133156"></path>
      <path d="M143.18,121.284V116.56h-.792v1.97h-2.075v-1.97h-.792v4.724h.792v-2.023h2.075v2.023Z" transform="translate(-26.183 -20.513)" fill="#133156"></path>
      <path d="M149.14,117.3v-.74h-2.8v4.724h2.9v-.74h-2.113v-1.283h1.547v-.732h-1.547V117.3Z" transform="translate(-27.856 -20.513)" fill="#133156"></path>
    </g>
  </g>
</svg>
